<svg xmlns="http://www.w3.org/2000/svg" viewBox="0 0 512 512" style="height: 494px; width: 494px;"><g class="" transform="translate(0,0)" style=""><g><path d="M294.8 26.57L238 60.37L245.8 73.54L281 52.59L270.8 118L277.1 128.6L336 93.53L328.2 80.36L290.9 102.5L301 37.12L294.8 26.57Z" class="" fill="#ffffff" fill-opacity="0"></path><path d="M147.1 60.55C76.145 100.024 32.108 174.804 32 256C32 379.712 132.288 480 256 480C355.481 479.948 443.01 414.292 470.9 318.8C431.686 360.331 377.119 383.908 320 384C205.125 384 112 290.875 112 176C112.035 134.894 124.249 94.72 147.1 60.55Z" class="" fill="#000000" fill-opacity="1"></path><path d="M391.6 112.6L384.7 129.1L428.8 147.5L360.5 183.4L355 196.6L428.7 227.4L435.6 210.9L388.9 191.4L457.2 155.5L462.7 142.3L391.6 112.6Z" class="selected" fill="#ffffff" fill-opacity="0"></path><path d="M276.6 176.6L178.8 211.6L186.9 234.3L247.5 212.6L212.1 310.5L218.6 328.6L320 292.4L311.9 269.7L247.7 292.7L283.1 194.8L276.6 176.6Z" class="" fill="#ffffff" fill-opacity="0"></path></g></g></svg>